# xmcd CD database file
#
# Track frame offsets:
#	150
#	14135
#	27900
#	43720
#	57185
#	75640
#	91820
#	109120
#	128395
#	147790
#	163527
#	180825
#	197922
#	215092
#
# Disc length: 3122 seconds
#
# Revision: 0
# Processed by: cddbd v1.5.2PL0 Copyright (c) Steve Scherf et al.
# Submitted via: CDex 1.70beta2
#
DISCID=b50c300e
DTITLE=舟木一夫 - 特選ベスト　蜃気楼
DYEAR=2001
DGENRE=歌謡曲
TTITLE0=高校三年生
TTITLE1=修学旅行
TTITLE2=学園広場
TTITLE3=仲間たち
TTITLE4=貝がらの唄
TTITLE5=花咲く乙女たち
TTITLE6=北国の街
TTITLE7=高原のお嬢さん
TTITLE8=絶唱
TTITLE9=夕笛
TTITLE10=夕映えのふたり
TTITLE11=君代振りむくな
TTITLE12=思い出カフェ・オ・レ
TTITLE13=蜃気楼
EXTD=YEAR: 2001
EXTT0=
EXTT1=
EXTT2=
EXTT3=
EXTT4=
EXTT5=
EXTT6=
EXTT7=
EXTT8=
EXTT9=
EXTT10=
EXTT11=
EXTT12=
EXTT13=
PLAYORDER=
